<mxfile host="app.diagrams.net" agent="Mozilla/5.0 (Windows NT 10.0; Win64; x64) AppleWebKit/537.36 (KHTML, like Gecko) Chrome/130.0.0.0 Safari/537.36 Edg/130.0.0.0" version="24.8.3" pages="5">
  <diagram name="Landing" id="x6D8E37I-bTPpWvTAXMf">
    <mxGraphModel dx="1509" dy="941" grid="1" gridSize="10" guides="1" tooltips="1" connect="1" arrows="1" fold="1" page="1" pageScale="1" pageWidth="827" pageHeight="1169" math="0" shadow="0">
      <root>
        <mxCell id="0" />
        <mxCell id="1" parent="0" />
        <mxCell id="coXWyrW7cERvnaeyi74H-7" value="" style="verticalLabelPosition=bottom;verticalAlign=top;html=1;shadow=0;dashed=0;strokeWidth=1;shape=mxgraph.android.phone2;strokeColor=#c0c0c0;" parent="1" vertex="1">
          <mxGeometry x="70" y="60" width="120" height="210" as="geometry" />
        </mxCell>
        <mxCell id="coXWyrW7cERvnaeyi74H-8" value="URL" style="strokeWidth=1;shadow=0;dashed=0;align=center;html=1;shape=mxgraph.mockup.text.textBox;fontColor=#666666;align=left;fontSize=17;spacingLeft=4;spacingTop=-3;whiteSpace=wrap;strokeColor=#666666;mainText=" parent="1" vertex="1">
          <mxGeometry x="100" y="155" width="60" height="20" as="geometry" />
        </mxCell>
        <mxCell id="coXWyrW7cERvnaeyi74H-10" value="Landing page, everyone goes here before the going to main page&lt;div&gt;&lt;br&gt;&lt;/div&gt;" style="text;html=1;align=center;verticalAlign=middle;whiteSpace=wrap;rounded=0;fontFamily=Helvetica;fontSize=14;fontColor=default;" parent="1" vertex="1">
          <mxGeometry x="60" y="300" width="140" height="70" as="geometry" />
        </mxCell>
      </root>
    </mxGraphModel>
  </diagram>
  <diagram id="cVzmgdBZsG97tr5vKYiz" name="Landing Flow">
    <mxGraphModel dx="1509" dy="941" grid="1" gridSize="10" guides="1" tooltips="1" connect="1" arrows="1" fold="1" page="1" pageScale="1" pageWidth="827" pageHeight="1169" math="0" shadow="0">
      <root>
        <mxCell id="0" />
        <mxCell id="1" parent="0" />
        <mxCell id="-yaxzN4_7rjHa12eL80I-1" value="&lt;h1 style=&quot;margin-top: 0px;&quot;&gt;Landing&lt;/h1&gt;&lt;p style=&quot;&quot;&gt;&lt;span style=&quot;font-size: 14px;&quot;&gt;When user just start the app, or returned back to this page&lt;/span&gt;&lt;/p&gt;&lt;p style=&quot;&quot;&gt;&lt;span style=&quot;font-size: 14px;&quot;&gt;The user can input the base url of the server to connect, the app check and connect,&lt;/span&gt;&lt;/p&gt;&lt;p style=&quot;&quot;&gt;&lt;span style=&quot;font-size: 14px;&quot;&gt;and get to app main page&lt;/span&gt;&lt;/p&gt;&lt;p style=&quot;&quot;&gt;&lt;span style=&quot;font-size: 14px;&quot;&gt;&lt;br&gt;&lt;/span&gt;&lt;/p&gt;" style="text;html=1;whiteSpace=wrap;overflow=hidden;rounded=0;" vertex="1" parent="1">
          <mxGeometry x="180" y="160" width="224" height="177" as="geometry" />
        </mxCell>
        <mxCell id="-yaxzN4_7rjHa12eL80I-2" value="" style="edgeStyle=none;curved=1;rounded=0;orthogonalLoop=1;jettySize=auto;html=1;fontSize=12;startSize=8;endSize=8;" edge="1" parent="1" source="-yaxzN4_7rjHa12eL80I-3" target="-yaxzN4_7rjHa12eL80I-5">
          <mxGeometry relative="1" as="geometry" />
        </mxCell>
        <mxCell id="-yaxzN4_7rjHa12eL80I-3" value="&lt;font style=&quot;font-size: 14px;&quot;&gt;user inputs base url&lt;/font&gt;" style="rounded=1;whiteSpace=wrap;html=1;fontSize=14;" vertex="1" parent="1">
          <mxGeometry x="433" y="399.5" width="151" height="94.5" as="geometry" />
        </mxCell>
        <mxCell id="-yaxzN4_7rjHa12eL80I-4" value="" style="edgeStyle=none;curved=1;rounded=0;orthogonalLoop=1;jettySize=auto;html=1;fontSize=12;startSize=8;endSize=8;" edge="1" parent="1" source="-yaxzN4_7rjHa12eL80I-5" target="-yaxzN4_7rjHa12eL80I-10">
          <mxGeometry relative="1" as="geometry" />
        </mxCell>
        <mxCell id="-yaxzN4_7rjHa12eL80I-5" value="&lt;font style=&quot;font-size: 14px;&quot;&gt;system check accessibility&lt;/font&gt;" style="rounded=1;whiteSpace=wrap;html=1;" vertex="1" parent="1">
          <mxGeometry x="704" y="399.5" width="151" height="94.5" as="geometry" />
        </mxCell>
        <mxCell id="-yaxzN4_7rjHa12eL80I-6" value="" style="edgeStyle=none;curved=1;rounded=0;orthogonalLoop=1;jettySize=auto;html=1;fontSize=12;startSize=8;endSize=8;" edge="1" parent="1" source="-yaxzN4_7rjHa12eL80I-10" target="-yaxzN4_7rjHa12eL80I-12">
          <mxGeometry relative="1" as="geometry" />
        </mxCell>
        <mxCell id="-yaxzN4_7rjHa12eL80I-7" value="&lt;font style=&quot;font-size: 14px;&quot;&gt;Yes&lt;/font&gt;" style="edgeLabel;html=1;align=center;verticalAlign=middle;resizable=0;points=[];fontSize=12;" vertex="1" connectable="0" parent="-yaxzN4_7rjHa12eL80I-6">
          <mxGeometry x="-0.3773" y="1" relative="1" as="geometry">
            <mxPoint as="offset" />
          </mxGeometry>
        </mxCell>
        <mxCell id="-yaxzN4_7rjHa12eL80I-8" value="" style="edgeStyle=none;curved=1;rounded=0;orthogonalLoop=1;jettySize=auto;html=1;fontSize=12;startSize=8;endSize=8;" edge="1" parent="1" source="-yaxzN4_7rjHa12eL80I-10" target="-yaxzN4_7rjHa12eL80I-17">
          <mxGeometry relative="1" as="geometry">
            <mxPoint x="830.3190921228306" y="604" as="targetPoint" />
          </mxGeometry>
        </mxCell>
        <mxCell id="-yaxzN4_7rjHa12eL80I-9" value="&lt;font style=&quot;font-size: 14px;&quot;&gt;No&lt;/font&gt;" style="edgeLabel;html=1;align=center;verticalAlign=middle;resizable=0;points=[];fontSize=12;" vertex="1" connectable="0" parent="-yaxzN4_7rjHa12eL80I-8">
          <mxGeometry x="-0.5771" relative="1" as="geometry">
            <mxPoint y="12" as="offset" />
          </mxGeometry>
        </mxCell>
        <mxCell id="-yaxzN4_7rjHa12eL80I-10" value="" style="rhombus;whiteSpace=wrap;html=1;rounded=1;" vertex="1" parent="1">
          <mxGeometry x="944" y="406.75" width="80" height="80" as="geometry" />
        </mxCell>
        <mxCell id="-yaxzN4_7rjHa12eL80I-11" style="edgeStyle=none;curved=1;rounded=0;orthogonalLoop=1;jettySize=auto;html=1;fontFamily=Helvetica;fontSize=12;fontColor=default;labelBackgroundColor=default;resizable=0;startSize=8;endSize=8;" edge="1" parent="1" source="-yaxzN4_7rjHa12eL80I-12" target="-yaxzN4_7rjHa12eL80I-15">
          <mxGeometry relative="1" as="geometry" />
        </mxCell>
        <mxCell id="-yaxzN4_7rjHa12eL80I-12" value="App redirect to main page" style="whiteSpace=wrap;html=1;rounded=1;" vertex="1" parent="1">
          <mxGeometry x="924" y="216.75" width="120" height="60" as="geometry" />
        </mxCell>
        <mxCell id="-yaxzN4_7rjHa12eL80I-13" value="" style="ellipse;html=1;shape=startState;fillColor=#000000;strokeColor=#ff0000;align=center;verticalAlign=middle;fontFamily=Helvetica;fontSize=12;fontColor=default;labelBackgroundColor=default;resizable=0;" vertex="1" parent="1">
          <mxGeometry x="265" y="431.75" width="30" height="30" as="geometry" />
        </mxCell>
        <mxCell id="-yaxzN4_7rjHa12eL80I-14" value="" style="edgeStyle=orthogonalEdgeStyle;html=1;verticalAlign=bottom;endArrow=open;endSize=8;strokeColor=#ff0000;rounded=0;fontFamily=Helvetica;fontSize=12;fontColor=default;labelBackgroundColor=default;resizable=0;curved=1;" edge="1" parent="1" source="-yaxzN4_7rjHa12eL80I-13">
          <mxGeometry relative="1" as="geometry">
            <mxPoint x="433" y="447" as="targetPoint" />
          </mxGeometry>
        </mxCell>
        <mxCell id="-yaxzN4_7rjHa12eL80I-15" value="" style="ellipse;html=1;shape=endState;fillColor=#000000;strokeColor=#ff0000;align=center;verticalAlign=middle;fontFamily=Helvetica;fontSize=12;fontColor=default;labelBackgroundColor=default;resizable=0;" vertex="1" parent="1">
          <mxGeometry x="1165" y="232" width="30" height="30" as="geometry" />
        </mxCell>
        <mxCell id="-yaxzN4_7rjHa12eL80I-16" style="edgeStyle=none;curved=1;rounded=0;orthogonalLoop=1;jettySize=auto;html=1;fontFamily=Helvetica;fontSize=14;fontColor=default;labelBackgroundColor=default;resizable=0;startSize=8;endSize=8;" edge="1" parent="1" source="-yaxzN4_7rjHa12eL80I-17" target="-yaxzN4_7rjHa12eL80I-3">
          <mxGeometry relative="1" as="geometry" />
        </mxCell>
        <mxCell id="-yaxzN4_7rjHa12eL80I-17" value="app shows error message" style="rounded=1;whiteSpace=wrap;html=1;strokeColor=default;align=center;verticalAlign=middle;fontFamily=Helvetica;fontSize=14;fontColor=default;fillColor=default;" vertex="1" parent="1">
          <mxGeometry x="692" y="608" width="153" height="72" as="geometry" />
        </mxCell>
      </root>
    </mxGraphModel>
  </diagram>
  <diagram id="GoDXZcbREkBihy81CpY0" name="Main Nav Page">
    <mxGraphModel dx="1509" dy="941" grid="1" gridSize="10" guides="1" tooltips="1" connect="1" arrows="1" fold="1" page="1" pageScale="1" pageWidth="827" pageHeight="1169" math="0" shadow="0">
      <root>
        <mxCell id="0" />
        <mxCell id="1" parent="0" />
        <mxCell id="Fci0KR7dz_iKtwp4WL8D-1" value="Tab 4" style="strokeWidth=1;html=1;shadow=0;dashed=0;shape=mxgraph.android.anchor;fontStyle=1;fontColor=#ffffff;" parent="1" vertex="1">
          <mxGeometry x="260" y="619" width="75" height="30" as="geometry" />
        </mxCell>
        <mxCell id="Fci0KR7dz_iKtwp4WL8D-2" value="Main Navigation" style="text;strokeColor=none;fillColor=none;html=1;align=center;verticalAlign=middle;whiteSpace=wrap;rounded=0;fontSize=16;" parent="1" vertex="1">
          <mxGeometry x="250" y="550" width="230" height="30" as="geometry" />
        </mxCell>
        <mxCell id="Fci0KR7dz_iKtwp4WL8D-3" value="" style="verticalLabelPosition=bottom;verticalAlign=top;html=1;shadow=0;dashed=0;strokeWidth=1;shape=mxgraph.android.phone2;strokeColor=#c0c0c0;rounded=0;align=center;fontFamily=Helvetica;fontSize=14;fontColor=default;fillColor=none;gradientColor=none;" parent="1" vertex="1">
          <mxGeometry x="90" y="110" width="200" height="390" as="geometry" />
        </mxCell>
        <mxCell id="Fci0KR7dz_iKtwp4WL8D-4" value="" style="verticalLabelPosition=bottom;verticalAlign=top;html=1;shadow=0;dashed=0;strokeWidth=1;shape=mxgraph.android.tab2;strokeColor=#c0c0c0;direction=north;" parent="1" vertex="1">
          <mxGeometry x="330" y="120" width="530" height="380" as="geometry" />
        </mxCell>
        <mxCell id="Fci0KR7dz_iKtwp4WL8D-5" value="" style="strokeWidth=1;html=1;shadow=0;dashed=0;shape=mxgraph.android.rrect;rSize=0;fillColor=#eeeeee;strokeColor=none;" parent="1" vertex="1">
          <mxGeometry x="98" y="430" width="185" height="30" as="geometry" />
        </mxCell>
        <mxCell id="Fci0KR7dz_iKtwp4WL8D-6" value="Tab 1" style="strokeWidth=1;html=1;shadow=0;dashed=0;shape=mxgraph.android.anchor;fontStyle=1;fontColor=#666666;" parent="Fci0KR7dz_iKtwp4WL8D-5" vertex="1">
          <mxGeometry width="46.25" height="30" as="geometry" />
        </mxCell>
        <mxCell id="Fci0KR7dz_iKtwp4WL8D-7" value="Tab 2" style="strokeWidth=1;html=1;shadow=0;dashed=0;shape=mxgraph.android.rrect;rSize=0;fontStyle=1;fillColor=#44c5f5;strokeColor=none;fontColor=#ffffff;" parent="Fci0KR7dz_iKtwp4WL8D-5" vertex="1">
          <mxGeometry x="46.25" width="46.25" height="30" as="geometry" />
        </mxCell>
        <mxCell id="Fci0KR7dz_iKtwp4WL8D-8" value="" style="strokeWidth=1;html=1;shadow=0;dashed=0;shape=mxgraph.android.rrect;rSize=0;fillColor=#33b5e5;strokeColor=none;" parent="Fci0KR7dz_iKtwp4WL8D-7" vertex="1">
          <mxGeometry y="27" width="46.25" height="3" as="geometry" />
        </mxCell>
        <mxCell id="Fci0KR7dz_iKtwp4WL8D-9" value="Tab 3" style="strokeWidth=1;html=1;shadow=0;dashed=0;shape=mxgraph.android.anchor;fontStyle=1;fontColor=#666666;" parent="Fci0KR7dz_iKtwp4WL8D-5" vertex="1">
          <mxGeometry x="92.5" width="46.25" height="30" as="geometry" />
        </mxCell>
        <mxCell id="Fci0KR7dz_iKtwp4WL8D-10" value="Tab 4" style="strokeWidth=1;html=1;shadow=0;dashed=0;shape=mxgraph.android.anchor;fontStyle=1;fontColor=#666666;" parent="Fci0KR7dz_iKtwp4WL8D-5" vertex="1">
          <mxGeometry x="138.75" width="46.25" height="30" as="geometry" />
        </mxCell>
        <mxCell id="Fci0KR7dz_iKtwp4WL8D-11" value="" style="shape=line;strokeColor=#666666;direction=south;" parent="Fci0KR7dz_iKtwp4WL8D-5" vertex="1">
          <mxGeometry x="131.5" y="5" width="10" height="20" as="geometry" />
        </mxCell>
        <mxCell id="Fci0KR7dz_iKtwp4WL8D-12" value="We have main/auth for unlogin user&lt;div&gt;main/favourite/me for login user&lt;/div&gt;" style="text;html=1;align=center;verticalAlign=middle;resizable=0;points=[];autosize=1;strokeColor=none;fillColor=none;fontSize=16;" parent="1" vertex="1">
          <mxGeometry x="550" y="540" width="280" height="50" as="geometry" />
        </mxCell>
        <mxCell id="Fci0KR7dz_iKtwp4WL8D-13" value="" style="endArrow=none;html=1;rounded=0;fontSize=12;startSize=8;endSize=8;curved=1;exitX=0.114;exitY=0.17;exitDx=0;exitDy=0;exitPerimeter=0;" parent="1" source="Fci0KR7dz_iKtwp4WL8D-4" edge="1">
          <mxGeometry width="50" height="50" relative="1" as="geometry">
            <mxPoint x="370" y="220" as="sourcePoint" />
            <mxPoint x="420" y="170" as="targetPoint" />
          </mxGeometry>
        </mxCell>
        <mxCell id="Fci0KR7dz_iKtwp4WL8D-14" value="" style="rounded=1;whiteSpace=wrap;html=1;" parent="1" vertex="1">
          <mxGeometry x="374" y="170" width="40" height="45" as="geometry" />
        </mxCell>
        <mxCell id="Fci0KR7dz_iKtwp4WL8D-15" value="" style="rounded=1;whiteSpace=wrap;html=1;" parent="1" vertex="1">
          <mxGeometry x="374" y="220" width="40" height="45" as="geometry" />
        </mxCell>
        <mxCell id="Fci0KR7dz_iKtwp4WL8D-16" value="" style="rounded=1;whiteSpace=wrap;html=1;" parent="1" vertex="1">
          <mxGeometry x="374" y="270" width="40" height="45" as="geometry" />
        </mxCell>
        <mxCell id="Fci0KR7dz_iKtwp4WL8D-17" value="Tab 4" style="strokeWidth=1;html=1;shadow=0;dashed=0;shape=mxgraph.android.anchor;fontStyle=1;fontColor=#ffffff;" parent="1" vertex="1">
          <mxGeometry x="240" y="1259" width="75" height="30" as="geometry" />
        </mxCell>
        <mxCell id="Fci0KR7dz_iKtwp4WL8D-18" value="(Optional) Main Navigation" style="text;strokeColor=none;fillColor=none;html=1;align=center;verticalAlign=middle;whiteSpace=wrap;rounded=0;fontSize=16;" parent="1" vertex="1">
          <mxGeometry x="230" y="1190" width="230" height="30" as="geometry" />
        </mxCell>
        <mxCell id="Fci0KR7dz_iKtwp4WL8D-19" value="" style="verticalLabelPosition=bottom;verticalAlign=top;html=1;shadow=0;dashed=0;strokeWidth=1;shape=mxgraph.android.phone2;strokeColor=#c0c0c0;rounded=0;align=center;fontFamily=Helvetica;fontSize=14;fontColor=default;fillColor=none;gradientColor=none;" parent="1" vertex="1">
          <mxGeometry x="70" y="750" width="200" height="390" as="geometry" />
        </mxCell>
        <mxCell id="Fci0KR7dz_iKtwp4WL8D-20" value="" style="verticalLabelPosition=bottom;verticalAlign=top;html=1;shadow=0;dashed=0;strokeWidth=1;shape=mxgraph.android.tab2;strokeColor=#c0c0c0;direction=north;" parent="1" vertex="1">
          <mxGeometry x="310" y="760" width="530" height="380" as="geometry" />
        </mxCell>
        <mxCell id="Fci0KR7dz_iKtwp4WL8D-21" value="" style="strokeWidth=1;html=1;shadow=0;dashed=0;shape=mxgraph.android.rrect;rSize=0;fillColor=#eeeeee;strokeColor=none;" parent="1" vertex="1">
          <mxGeometry x="78" y="1070" width="185" height="30" as="geometry" />
        </mxCell>
        <mxCell id="Fci0KR7dz_iKtwp4WL8D-22" value="Tab 1" style="strokeWidth=1;html=1;shadow=0;dashed=0;shape=mxgraph.android.anchor;fontStyle=1;fontColor=#666666;" parent="Fci0KR7dz_iKtwp4WL8D-21" vertex="1">
          <mxGeometry width="46.25" height="30" as="geometry" />
        </mxCell>
        <mxCell id="Fci0KR7dz_iKtwp4WL8D-23" value="Tab 2" style="strokeWidth=1;html=1;shadow=0;dashed=0;shape=mxgraph.android.rrect;rSize=0;fontStyle=1;fillColor=#44c5f5;strokeColor=none;fontColor=#ffffff;" parent="Fci0KR7dz_iKtwp4WL8D-21" vertex="1">
          <mxGeometry x="46.25" width="46.25" height="30" as="geometry" />
        </mxCell>
        <mxCell id="Fci0KR7dz_iKtwp4WL8D-24" value="" style="strokeWidth=1;html=1;shadow=0;dashed=0;shape=mxgraph.android.rrect;rSize=0;fillColor=#33b5e5;strokeColor=none;" parent="Fci0KR7dz_iKtwp4WL8D-23" vertex="1">
          <mxGeometry y="27" width="46.25" height="3" as="geometry" />
        </mxCell>
        <mxCell id="Fci0KR7dz_iKtwp4WL8D-25" value="Tab 3" style="strokeWidth=1;html=1;shadow=0;dashed=0;shape=mxgraph.android.anchor;fontStyle=1;fontColor=#666666;" parent="Fci0KR7dz_iKtwp4WL8D-21" vertex="1">
          <mxGeometry x="92.5" width="46.25" height="30" as="geometry" />
        </mxCell>
        <mxCell id="Fci0KR7dz_iKtwp4WL8D-26" value="Tab 4" style="strokeWidth=1;html=1;shadow=0;dashed=0;shape=mxgraph.android.anchor;fontStyle=1;fontColor=#666666;" parent="Fci0KR7dz_iKtwp4WL8D-21" vertex="1">
          <mxGeometry x="138.75" width="46.25" height="30" as="geometry" />
        </mxCell>
        <mxCell id="Fci0KR7dz_iKtwp4WL8D-27" value="" style="shape=line;strokeColor=#666666;direction=south;" parent="Fci0KR7dz_iKtwp4WL8D-21" vertex="1">
          <mxGeometry x="131.5" y="5" width="10" height="20" as="geometry" />
        </mxCell>
        <mxCell id="Fci0KR7dz_iKtwp4WL8D-28" value="We have main/auth for unlogin user&lt;div&gt;main/favourite/me for login user&lt;/div&gt;" style="text;html=1;align=center;verticalAlign=middle;resizable=0;points=[];autosize=1;strokeColor=none;fillColor=none;fontSize=16;" parent="1" vertex="1">
          <mxGeometry x="530" y="1180" width="280" height="50" as="geometry" />
        </mxCell>
        <mxCell id="Fci0KR7dz_iKtwp4WL8D-29" value="" style="endArrow=none;html=1;rounded=0;fontSize=12;startSize=8;endSize=8;curved=1;exitX=0.114;exitY=0.17;exitDx=0;exitDy=0;exitPerimeter=0;" parent="1" source="Fci0KR7dz_iKtwp4WL8D-20" edge="1">
          <mxGeometry width="50" height="50" relative="1" as="geometry">
            <mxPoint x="350" y="860" as="sourcePoint" />
            <mxPoint x="400" y="810" as="targetPoint" />
          </mxGeometry>
        </mxCell>
        <mxCell id="Fci0KR7dz_iKtwp4WL8D-30" value="" style="rounded=1;whiteSpace=wrap;html=1;" parent="1" vertex="1">
          <mxGeometry x="354" y="877.5" width="40" height="45" as="geometry" />
        </mxCell>
        <mxCell id="Fci0KR7dz_iKtwp4WL8D-31" value="" style="rounded=1;whiteSpace=wrap;html=1;" parent="1" vertex="1">
          <mxGeometry x="354" y="927.5" width="40" height="45" as="geometry" />
        </mxCell>
        <mxCell id="Fci0KR7dz_iKtwp4WL8D-32" value="" style="rounded=1;whiteSpace=wrap;html=1;" parent="1" vertex="1">
          <mxGeometry x="354" y="977.5" width="40" height="45" as="geometry" />
        </mxCell>
        <mxCell id="Fci0KR7dz_iKtwp4WL8D-33" value="" style="html=1;verticalLabelPosition=bottom;labelBackgroundColor=#ffffff;verticalAlign=top;shadow=0;dashed=0;strokeWidth=2;shape=mxgraph.ios7.misc.add;fillColor=#00dd00;strokeColor=#ffffff;sketch=0;" parent="1" vertex="1">
          <mxGeometry x="210" y="1022.5" width="42" height="39" as="geometry" />
        </mxCell>
        <mxCell id="Fci0KR7dz_iKtwp4WL8D-34" value="" style="html=1;verticalLabelPosition=bottom;labelBackgroundColor=#ffffff;verticalAlign=top;shadow=0;dashed=0;strokeWidth=2;shape=mxgraph.ios7.misc.add;fillColor=#00dd00;strokeColor=#ffffff;sketch=0;" parent="1" vertex="1">
          <mxGeometry x="354" y="820" width="42" height="39" as="geometry" />
        </mxCell>
        <mxCell id="Fci0KR7dz_iKtwp4WL8D-35" value="The button is only floating if width class == Compat&lt;div&gt;Otherwise, it is one of the options inside the navigation column&lt;/div&gt;" style="text;html=1;align=center;verticalAlign=middle;resizable=0;points=[];autosize=1;strokeColor=none;fillColor=none;fontSize=16;" parent="1" vertex="1">
          <mxGeometry x="190" y="1249" width="470" height="50" as="geometry" />
        </mxCell>
      </root>
    </mxGraphModel>
  </diagram>
  <diagram id="fLx3yFM8GiVry9c2lxZ1" name="Login page">
    <mxGraphModel dx="1509" dy="2110" grid="1" gridSize="10" guides="1" tooltips="1" connect="1" arrows="1" fold="1" page="1" pageScale="1" pageWidth="827" pageHeight="1169" math="0" shadow="0">
      <root>
        <mxCell id="0" />
        <mxCell id="1" parent="0" />
        <mxCell id="SEa34RisZ6C3qfbz2WAm-1" value="" style="verticalLabelPosition=bottom;verticalAlign=top;html=1;shadow=0;dashed=0;strokeWidth=1;shape=mxgraph.android.phone2;strokeColor=#c0c0c0;rounded=0;align=center;fontFamily=Helvetica;fontSize=14;fontColor=default;fillColor=none;gradientColor=none;" vertex="1" parent="1">
          <mxGeometry x="110" y="-1030" width="200" height="390" as="geometry" />
        </mxCell>
        <mxCell id="SEa34RisZ6C3qfbz2WAm-2" value="Username" style="strokeWidth=1;shadow=0;dashed=0;align=center;html=1;shape=mxgraph.mockup.text.textBox;fontColor=#666666;align=left;fontSize=17;spacingLeft=4;spacingTop=-3;whiteSpace=wrap;strokeColor=#666666;mainText=" vertex="1" parent="1">
          <mxGeometry x="160" y="-895" width="120" height="25" as="geometry" />
        </mxCell>
        <mxCell id="SEa34RisZ6C3qfbz2WAm-3" value="Password" style="strokeWidth=1;shadow=0;dashed=0;align=center;html=1;shape=mxgraph.mockup.text.textBox;fontColor=#666666;align=left;fontSize=17;spacingLeft=4;spacingTop=-3;whiteSpace=wrap;strokeColor=#666666;mainText=" vertex="1" parent="1">
          <mxGeometry x="160" y="-837.5" width="120" height="25" as="geometry" />
        </mxCell>
        <mxCell id="SEa34RisZ6C3qfbz2WAm-4" value="Register" style="rounded=1;html=1;shadow=0;dashed=0;whiteSpace=wrap;fontSize=10;fillColor=#E6E6E6;align=center;strokeColor=#E6E6E6;fontColor=#333333;verticalAlign=middle;fontFamily=Helvetica;" vertex="1" parent="1">
          <mxGeometry x="230" y="-720" width="50" height="16.88" as="geometry" />
        </mxCell>
        <mxCell id="SEa34RisZ6C3qfbz2WAm-5" value="Change URL" style="rounded=1;html=1;shadow=0;dashed=0;whiteSpace=wrap;fontSize=10;fillColor=#E6E6E6;align=center;strokeColor=#E6E6E6;fontColor=#333333;verticalAlign=middle;fontFamily=Helvetica;" vertex="1" parent="1">
          <mxGeometry x="160" y="-720" width="50" height="16.88" as="geometry" />
        </mxCell>
        <mxCell id="SEa34RisZ6C3qfbz2WAm-6" value="" style="verticalLabelPosition=bottom;verticalAlign=top;html=1;shadow=0;dashed=0;strokeWidth=1;shape=mxgraph.android.phone2;strokeColor=#c0c0c0;rounded=0;align=center;fontFamily=Helvetica;fontSize=14;fontColor=default;fillColor=none;gradientColor=none;" vertex="1" parent="1">
          <mxGeometry x="360" y="-1030" width="200" height="390" as="geometry" />
        </mxCell>
        <mxCell id="SEa34RisZ6C3qfbz2WAm-7" value="Login" style="rounded=1;html=1;shadow=0;dashed=0;whiteSpace=wrap;fontSize=10;fillColor=#E6E6E6;align=center;strokeColor=#E6E6E6;fontColor=#333333;verticalAlign=middle;fontFamily=Helvetica;" vertex="1" parent="1">
          <mxGeometry x="168" y="-790" width="105.5" height="16.88" as="geometry" />
        </mxCell>
        <mxCell id="SEa34RisZ6C3qfbz2WAm-8" value="Username" style="strokeWidth=1;shadow=0;dashed=0;align=center;html=1;shape=mxgraph.mockup.text.textBox;fontColor=#666666;align=left;fontSize=17;spacingLeft=4;spacingTop=-3;whiteSpace=wrap;strokeColor=#666666;mainText=" vertex="1" parent="1">
          <mxGeometry x="400" y="-895.94" width="120" height="25" as="geometry" />
        </mxCell>
        <mxCell id="SEa34RisZ6C3qfbz2WAm-9" value="Password" style="strokeWidth=1;shadow=0;dashed=0;align=center;html=1;shape=mxgraph.mockup.text.textBox;fontColor=#666666;align=left;fontSize=17;spacingLeft=4;spacingTop=-3;whiteSpace=wrap;strokeColor=#666666;mainText=" vertex="1" parent="1">
          <mxGeometry x="400" y="-838.44" width="120" height="25" as="geometry" />
        </mxCell>
        <mxCell id="SEa34RisZ6C3qfbz2WAm-10" value="Register" style="rounded=1;html=1;shadow=0;dashed=0;whiteSpace=wrap;fontSize=10;fillColor=#E6E6E6;align=center;strokeColor=#E6E6E6;fontColor=#333333;verticalAlign=middle;fontFamily=Helvetica;" vertex="1" parent="1">
          <mxGeometry x="408" y="-790.94" width="105.5" height="16.88" as="geometry" />
        </mxCell>
        <mxCell id="SEa34RisZ6C3qfbz2WAm-11" value="Login" style="rounded=1;html=1;shadow=0;dashed=0;whiteSpace=wrap;fontSize=10;fillColor=#E6E6E6;align=center;strokeColor=#E6E6E6;fontColor=#333333;verticalAlign=middle;fontFamily=Helvetica;" vertex="1" parent="1">
          <mxGeometry x="470" y="-720" width="50" height="16.88" as="geometry" />
        </mxCell>
        <mxCell id="SEa34RisZ6C3qfbz2WAm-12" value="Change URL" style="rounded=1;html=1;shadow=0;dashed=0;whiteSpace=wrap;fontSize=10;fillColor=#E6E6E6;align=center;strokeColor=#E6E6E6;fontColor=#333333;verticalAlign=middle;fontFamily=Helvetica;" vertex="1" parent="1">
          <mxGeometry x="408" y="-720" width="50" height="16.88" as="geometry" />
        </mxCell>
        <mxCell id="SEa34RisZ6C3qfbz2WAm-13" style="edgeStyle=none;curved=1;rounded=0;orthogonalLoop=1;jettySize=auto;html=1;entryX=0.033;entryY=0.749;entryDx=0;entryDy=0;entryPerimeter=0;fontSize=12;startSize=8;endSize=8;" edge="1" parent="1" source="SEa34RisZ6C3qfbz2WAm-4" target="SEa34RisZ6C3qfbz2WAm-6">
          <mxGeometry relative="1" as="geometry" />
        </mxCell>
        <mxCell id="SEa34RisZ6C3qfbz2WAm-14" style="edgeStyle=none;curved=1;rounded=0;orthogonalLoop=1;jettySize=auto;html=1;entryX=1;entryY=0.922;entryDx=0;entryDy=0;entryPerimeter=0;fontSize=12;startSize=8;endSize=8;" edge="1" parent="1" source="SEa34RisZ6C3qfbz2WAm-11" target="SEa34RisZ6C3qfbz2WAm-1">
          <mxGeometry relative="1" as="geometry">
            <Array as="points">
              <mxPoint x="400" y="-665" />
            </Array>
          </mxGeometry>
        </mxCell>
        <mxCell id="SEa34RisZ6C3qfbz2WAm-15" value="Login/Sign-up Page.&lt;div&gt;Can be implemented as one screen&lt;/div&gt;" style="text;html=1;align=center;verticalAlign=middle;resizable=0;points=[];autosize=1;strokeColor=none;fillColor=none;fontSize=16;" vertex="1" parent="1">
          <mxGeometry x="180" y="-610" width="280" height="50" as="geometry" />
        </mxCell>
      </root>
    </mxGraphModel>
  </diagram>
  <diagram id="7v7ZJNCBt_DzQo7xC0Lz" name="Me">
    <mxGraphModel dx="682" dy="941" grid="1" gridSize="10" guides="1" tooltips="1" connect="1" arrows="1" fold="1" page="1" pageScale="1" pageWidth="827" pageHeight="1169" math="0" shadow="0">
      <root>
        <mxCell id="0" />
        <mxCell id="1" parent="0" />
        <mxCell id="gR5BF-UQT2PxlcCrOIPF-1" value="" style="verticalLabelPosition=bottom;verticalAlign=top;html=1;shadow=0;dashed=0;strokeWidth=1;shape=mxgraph.android.phone2;strokeColor=#c0c0c0;rounded=0;align=center;fontFamily=Helvetica;fontSize=14;fontColor=default;fillColor=none;gradientColor=none;" vertex="1" parent="1">
          <mxGeometry x="870" y="96" width="200" height="390" as="geometry" />
        </mxCell>
        <mxCell id="gR5BF-UQT2PxlcCrOIPF-2" value="" style="verticalLabelPosition=bottom;verticalAlign=top;html=1;shadow=0;dashed=0;strokeWidth=1;shape=mxgraph.android.tab2;strokeColor=#c0c0c0;direction=north;" vertex="1" parent="1">
          <mxGeometry x="1100" y="91" width="530" height="380" as="geometry" />
        </mxCell>
        <mxCell id="gR5BF-UQT2PxlcCrOIPF-3" value="Me page (with add article floating button)&lt;div&gt;&lt;br&gt;&lt;/div&gt;" style="text;html=1;align=center;verticalAlign=middle;resizable=0;points=[];autosize=1;strokeColor=none;fillColor=none;fontSize=16;" vertex="1" parent="1">
          <mxGeometry x="950" y="516" width="310" height="50" as="geometry" />
        </mxCell>
        <mxCell id="gR5BF-UQT2PxlcCrOIPF-4" value="" style="ellipse;whiteSpace=wrap;html=1;aspect=fixed;" vertex="1" parent="1">
          <mxGeometry x="930" y="146" width="80" height="80" as="geometry" />
        </mxCell>
        <mxCell id="gR5BF-UQT2PxlcCrOIPF-5" value="Bio xxx" style="text;html=1;align=center;verticalAlign=middle;resizable=0;points=[];autosize=1;strokeColor=none;fillColor=none;fontSize=16;" vertex="1" parent="1">
          <mxGeometry x="881" y="261" width="80" height="30" as="geometry" />
        </mxCell>
        <mxCell id="gR5BF-UQT2PxlcCrOIPF-6" value="" style="ellipse;whiteSpace=wrap;html=1;aspect=fixed;" vertex="1" parent="1">
          <mxGeometry x="1200" y="146" width="80" height="80" as="geometry" />
        </mxCell>
        <mxCell id="gR5BF-UQT2PxlcCrOIPF-7" value="Bio XXX" style="text;html=1;align=center;verticalAlign=middle;resizable=0;points=[];autosize=1;strokeColor=none;fillColor=none;fontSize=16;" vertex="1" parent="1">
          <mxGeometry x="1291" y="203.5" width="80" height="30" as="geometry" />
        </mxCell>
        <mxCell id="gR5BF-UQT2PxlcCrOIPF-8" value="Username" style="text;html=1;align=center;verticalAlign=middle;resizable=0;points=[];autosize=1;strokeColor=none;fillColor=none;fontSize=16;" vertex="1" parent="1">
          <mxGeometry x="920" y="226" width="100" height="30" as="geometry" />
        </mxCell>
        <mxCell id="gR5BF-UQT2PxlcCrOIPF-9" value="Username" style="text;html=1;align=center;verticalAlign=middle;resizable=0;points=[];autosize=1;strokeColor=none;fillColor=none;fontSize=16;" vertex="1" parent="1">
          <mxGeometry x="1291" y="161" width="100" height="30" as="geometry" />
        </mxCell>
        <mxCell id="gR5BF-UQT2PxlcCrOIPF-10" value="" style="endArrow=none;html=1;rounded=0;fontSize=12;startSize=8;endSize=8;curved=1;" edge="1" parent="1">
          <mxGeometry width="50" height="50" relative="1" as="geometry">
            <mxPoint x="881" y="336" as="sourcePoint" />
            <mxPoint x="1080" y="336" as="targetPoint" />
          </mxGeometry>
        </mxCell>
        <mxCell id="gR5BF-UQT2PxlcCrOIPF-11" value="Article Areas (optional)" style="text;html=1;align=center;verticalAlign=middle;resizable=0;points=[];autosize=1;strokeColor=none;fillColor=none;fontSize=16;" vertex="1" parent="1">
          <mxGeometry x="880" y="346" width="180" height="30" as="geometry" />
        </mxCell>
        <mxCell id="gR5BF-UQT2PxlcCrOIPF-12" value="Article Areas (optional)" style="text;html=1;align=center;verticalAlign=middle;resizable=0;points=[];autosize=1;strokeColor=none;fillColor=none;fontSize=16;" vertex="1" parent="1">
          <mxGeometry x="1205" y="306" width="180" height="30" as="geometry" />
        </mxCell>
        <mxCell id="gR5BF-UQT2PxlcCrOIPF-13" value="" style="endArrow=none;html=1;rounded=0;fontSize=12;startSize=8;endSize=8;curved=1;" edge="1" parent="1">
          <mxGeometry width="50" height="50" relative="1" as="geometry">
            <mxPoint x="1140.5" y="261" as="sourcePoint" />
            <mxPoint x="1580" y="261" as="targetPoint" />
          </mxGeometry>
        </mxCell>
        <mxCell id="gR5BF-UQT2PxlcCrOIPF-14" value="Logout" style="text;html=1;align=center;verticalAlign=middle;whiteSpace=wrap;rounded=0;fontSize=16;" vertex="1" parent="1">
          <mxGeometry x="999" y="296" width="60" height="30" as="geometry" />
        </mxCell>
        <mxCell id="gR5BF-UQT2PxlcCrOIPF-15" value="Switch Server" style="text;html=1;align=center;verticalAlign=middle;whiteSpace=wrap;rounded=0;fontSize=16;" vertex="1" parent="1">
          <mxGeometry x="881" y="296" width="109" height="30" as="geometry" />
        </mxCell>
        <mxCell id="gR5BF-UQT2PxlcCrOIPF-16" value="Switch Server" style="text;html=1;align=center;verticalAlign=middle;whiteSpace=wrap;rounded=0;fontSize=16;" vertex="1" parent="1">
          <mxGeometry x="1480" y="191" width="109" height="30" as="geometry" />
        </mxCell>
        <mxCell id="gR5BF-UQT2PxlcCrOIPF-17" value="Logout" style="text;html=1;align=center;verticalAlign=middle;whiteSpace=wrap;rounded=0;fontSize=16;" vertex="1" parent="1">
          <mxGeometry x="1520" y="226" width="60" height="30" as="geometry" />
        </mxCell>
        <mxCell id="gR5BF-UQT2PxlcCrOIPF-18" value="" style="html=1;verticalLabelPosition=bottom;labelBackgroundColor=#ffffff;verticalAlign=top;shadow=0;dashed=0;strokeWidth=2;shape=mxgraph.ios7.misc.add;fillColor=#00dd00;strokeColor=#ffffff;sketch=0;" vertex="1" parent="1">
          <mxGeometry x="999" y="386" width="50" height="50" as="geometry" />
        </mxCell>
        <mxCell id="gR5BF-UQT2PxlcCrOIPF-19" value="" style="html=1;verticalLabelPosition=bottom;labelBackgroundColor=#ffffff;verticalAlign=top;shadow=0;dashed=0;strokeWidth=2;shape=mxgraph.ios7.misc.add;fillColor=#00dd00;strokeColor=#ffffff;sketch=0;" vertex="1" parent="1">
          <mxGeometry x="1509.5" y="366" width="50" height="50" as="geometry" />
        </mxCell>
        <mxCell id="gR5BF-UQT2PxlcCrOIPF-20" value="Only consider doing Articles Areas&amp;nbsp;&lt;div&gt;after the article page is done&lt;/div&gt;" style="text;html=1;align=center;verticalAlign=middle;resizable=0;points=[];autosize=1;strokeColor=none;fillColor=none;fontSize=16;" vertex="1" parent="1">
          <mxGeometry x="1330" y="535" width="270" height="50" as="geometry" />
        </mxCell>
      </root>
    </mxGraphModel>
  </diagram>
</mxfile>
